<svg width="20" height="20" viewBox="0 0 20 20" fill="#000000" xmlns="http://www.w3.org/2000/svg">
<path d="M18.3952 13.1277C17.1707 13.1277 15.9684 12.9362 14.8291 12.5597C14.2611 12.366 13.6143 12.5163 13.2438 12.8939L10.995 14.5915C8.38701 13.1993 6.78056 11.5934 5.40743 9.00503L7.05509 6.81483C7.48316 6.38733 7.6367 5.76285 7.45274 5.17691C7.07462 4.0316 6.88253 2.82989 6.88253 1.60489C6.88259 0.719946 6.16264 0 5.27775 0H1.60479C0.719946 0 0 0.719946 0 1.60479C0 11.748 8.25196 19.9999 18.3952 19.9999C19.2801 19.9999 20 19.28 20 18.3951V14.7325C19.9999 13.8476 19.28 13.1277 18.3952 13.1277ZM18.8889 18.3952C18.8889 18.6675 18.6675 18.8889 18.3952 18.8889C8.86446 18.8889 1.11114 11.1355 1.11114 1.60484C1.11114 1.3325 1.3325 1.11114 1.60484 1.11114H5.2778C5.55014 1.11114 5.7715 1.3325 5.7715 1.60484C5.7715 2.94869 5.98254 4.26759 6.3954 5.51707C6.4529 5.70155 6.40623 5.89248 6.21962 6.08675L4.30988 8.61597C4.18186 8.78576 4.16176 9.0131 4.2578 9.20242C5.8165 12.2661 7.7105 14.1601 10.7959 15.7411C10.9836 15.8392 11.2136 15.8187 11.384 15.6901L13.9713 13.7299C14.102 13.5992 14.2979 13.5525 14.4748 13.6127C15.7329 14.0283 17.0518 14.2388 18.3952 14.2388C18.6675 14.2388 18.8889 14.4602 18.8889 14.7325V18.3952Z" fill="#000000"/>
</svg>
