<svg width="20" height="14" viewBox="0 0 20 14" fill="none" xmlns="http://www.w3.org/2000/svg">
<path d="M18.0435 0H1.95652C0.877617 0 0 0.87875 0 1.95652V11.5218C0 12.6007 0.878828 13.4783 1.95652 13.4783H18.0435C19.1207 13.4783 20 12.6012 20 11.5218V1.95652C20 0.879141 19.1228 0 18.0435 0ZM17.9907 1.30438C17.6589 1.63617 10.6911 8.60402 10.4612 8.83398C10.2062 9.08891 9.79379 9.08891 9.53883 8.83398C9.30871 8.60379 2.3409 1.63602 2.00926 1.30438H17.9907ZM1.30434 11.469V2.44406L5.8168 6.95652L1.30434 11.469ZM2.44402 12.1739L6.7391 7.87883L8.61648 9.75621C9.37922 10.519 10.6205 10.5191 11.3834 9.75621L13.2608 7.87883L17.5559 12.1739H2.44402ZM18.6957 11.469L14.1832 6.95652L18.6956 2.44406V11.469H18.6957Z" fill="white"/>
</svg>
