<svg width="122" height="78" viewBox="0 0 122 78" fill="none" xmlns="http://www.w3.org/2000/svg">
<path d="M89.3392 25.0318C89.3392 38.8565 78.1321 50.0636 64.3074 50.0636C50.4827 50.0636 39.2756 38.8565 39.2756 25.0318C39.2756 11.2071 50.4827 0 64.3074 0C78.1321 0 89.3392 11.2071 89.3392 25.0318Z" fill="#FDB62B"/>
<path d="M84.4417 28.5689C84.4417 42.3936 73.2346 53.6007 59.4099 53.6007C45.5852 53.6007 34.3781 42.3936 34.3781 28.5689C34.3781 14.7442 45.5852 3.53711 59.4099 3.53711C73.2346 3.53711 84.4417 14.7442 84.4417 28.5689Z" fill="white"/>
<path d="M47.3236 6.64303C50.9067 4.66368 55.0268 3.53711 59.4099 3.53711C73.2346 3.53711 84.4417 14.7442 84.4417 28.5689C84.4417 35.8386 81.3427 42.3846 76.3937 46.9577C72.8106 48.937 68.6906 50.0636 64.3074 50.0636C50.4827 50.0636 39.2756 38.8565 39.2756 25.0318C39.2756 17.7621 42.3746 11.2161 47.3236 6.64303Z" fill="#C98400"/>
<path d="M63.7632 5.44253C65.5318 5.44253 80.3604 5.03444 80.3604 22.3118C80.3604 39.5892 60.4982 37.1405 60.4982 37.1405V26.3931H64.7155C70.0212 26.3931 69.8852 22.0397 69.8852 20.8154C69.8852 19.591 69.477 15.6457 64.7155 15.6457C59.9541 15.6457 59.4099 19.4549 59.4099 20.8154V37.1405L54.5124 44.7588V37.9567C54.5124 37.9567 55.8728 37.9567 55.8728 36.0521C55.8728 34.1475 51.6555 34.1475 51.6555 36.0521C51.6555 37.9567 52.6078 37.9567 52.6078 37.9567V44.7588L48.2544 37.1405V22.3118C48.2544 5.85066 61.9947 5.44253 63.7632 5.44253Z" fill="white"/>
<path d="M79.8163 65.5724C80.8682 65.5724 81.7209 64.7197 81.7209 63.6678C81.7209 62.616 80.8682 61.7633 79.8163 61.7633V65.5724ZM34.3781 63.5318C34.3781 62.4799 33.5254 61.6272 32.4735 61.6272C31.4216 61.6272 30.5689 62.4799 30.5689 63.5318H34.3781ZM32.4735 73.3269C31.4216 73.3269 30.5689 74.1796 30.5689 75.2315C30.5689 76.2833 31.4216 77.136 32.4735 77.136V73.3269ZM119.677 77.2721C120.729 77.2721 121.581 76.4194 121.581 75.3675C121.581 74.3156 120.729 73.4629 119.677 73.4629V77.2721ZM22.1343 69.2456H8.93821V73.0548H22.1343V69.2456ZM22.1343 65.4364C23.7409 65.4364 24.5081 65.8371 24.8606 66.1602C25.194 66.4658 25.3993 66.9241 25.3993 67.6131H29.2085C29.2085 66.1253 28.7336 64.543 27.4346 63.3522C26.1545 62.1788 24.3369 61.6272 22.1343 61.6272V65.4364ZM25.3993 67.6131C25.3993 67.9725 25.255 68.2998 24.785 68.6132C24.264 68.9605 23.371 69.2456 22.1343 69.2456V73.0548C23.8906 73.0548 25.5824 72.6597 26.898 71.7826C28.2646 70.8715 29.2085 69.4304 29.2085 67.6131H25.3993ZM3.90464 66.1166C3.90464 66.2621 3.87521 66.347 3.87227 66.3555C3.8679 66.3681 3.87446 66.3458 3.90743 66.2909C3.97549 66.1775 4.09973 66.0184 4.27338 65.8553C4.446 65.6931 4.62274 65.569 4.76782 65.4941C4.92746 65.4116 4.95404 65.4364 4.85694 65.4364V61.6272C3.52288 61.6272 2.3569 62.4293 1.66532 63.0789C1.27779 63.443 0.917384 63.8706 0.641081 64.3311C0.386757 64.7549 0.0954522 65.3858 0.0954522 66.1166H3.90464ZM4.85694 65.4364H22.1343V61.6272H4.85694V65.4364ZM62.1308 71.0141C62.1308 72.5748 62.498 74.1995 63.6308 75.4428C64.7936 76.7191 66.4665 77.2721 68.3887 77.2721V73.4629C67.182 73.4629 66.6782 73.1316 66.4466 72.8774C66.1849 72.5902 65.94 72.0383 65.94 71.0141H62.1308ZM79.8163 61.7633H68.3887V65.5724H79.8163V61.7633ZM68.3887 61.7633C66.1495 61.7633 64.5167 62.7297 63.489 64.0399C62.5216 65.2734 62.1308 66.7517 62.1308 67.8852H65.94C65.94 67.5222 66.0933 66.8918 66.4863 66.3907C66.8191 65.9664 67.363 65.5724 68.3887 65.5724V61.7633ZM37.235 67.2049C34.8242 67.2049 34.5948 66.5926 34.5626 66.5291C34.4787 66.364 34.4007 66.0715 34.3738 65.5162C34.3444 64.9121 34.3781 64.3824 34.3781 63.5318H30.5689C30.5689 64.1096 30.5346 64.9914 30.569 65.7009C30.6059 66.4592 30.7235 67.3826 31.1667 68.2549C32.1888 70.2661 34.3402 71.0141 37.235 71.0141V67.2049ZM59.682 72.2385V69.1095H55.8728V72.2385H59.682ZM57.7774 67.2049H37.235V71.0141H57.7774V67.2049ZM32.4735 77.136H54.7845V73.3269H32.4735V77.136ZM54.7845 77.136C56.2755 77.136 57.7792 76.8486 58.7542 75.6526C59.6455 74.5594 59.682 73.1512 59.682 72.2385H55.8728C55.8728 72.6786 55.8515 72.9561 55.815 73.1415C55.7812 73.313 55.7529 73.3057 55.8018 73.2458C55.945 73.0701 55.9522 73.3269 54.7845 73.3269V77.136ZM55.8728 61.7633V69.1095H59.682V61.7633H55.8728ZM3.90464 77V66.1166H0.0954522V77H3.90464ZM62.1308 67.8852V71.0141H65.94V67.8852H62.1308ZM68.3887 77.2721H119.677V73.4629H68.3887V77.2721Z" fill="white"/>
<path d="M86.0743 62.8516V71.8304M94.781 62.8516C94.781 62.8516 94.781 67.341 91.9241 67.341L86.7545 67.341M100.223 71.6944C100.223 69.6537 100.087 67.477 96.5495 67.477H87.0265" stroke="#FDB62B" stroke-width="2.17668" stroke-linecap="round"/>
<path d="M103.76 67.341C103.76 65.1621 105.526 63.3958 107.705 63.3958H116.14C118.319 63.3958 120.085 65.1621 120.085 67.341C120.085 69.5199 118.319 71.2862 116.14 71.2862H107.705C105.526 71.2862 103.76 69.5199 103.76 67.341Z" stroke="#FDB62B" stroke-width="2.72085"/>
</svg>
